<svg width="22" height="23" viewBox="0 0 22 23" fill="none" xmlns="http://www.w3.org/2000/svg">
<path fill-rule="evenodd" clip-rule="evenodd" d="M15.1279 14.4996H6.8714C4.44137 14.6082 2.28847 15.9441 1.31155 17.9495C0.133248 20.0315 2.48485 21.9994 5.21978 21.9994H16.7795C19.5161 21.9994 21.8677 20.0315 20.6877 17.9495C19.7108 15.9441 17.5579 14.6082 15.1279 14.4996Z" stroke="#323232" stroke-opacity="0.2" stroke-width="1.5" stroke-linecap="round" stroke-linejoin="round"/>
<path fill-rule="evenodd" clip-rule="evenodd" d="M15.9996 5.49988C15.9996 7.9851 13.7611 9.99976 10.9997 9.99976C8.2384 9.99976 5.99988 7.9851 5.99988 5.49988C5.99988 3.01467 8.2384 1 10.9997 1C12.3258 1 13.5975 1.47409 14.5352 2.31798C15.4728 3.16188 15.9996 4.30644 15.9996 5.49988Z" stroke="#323232" stroke-opacity="0.2" stroke-width="1.5" stroke-linecap="round" stroke-linejoin="round"/>
</svg>
