<svg width="24" height="22" viewBox="0 0 24 22" fill="none" xmlns="http://www.w3.org/2000/svg">
<path d="M1 3.38333C1 2.06705 2.09442 1 3.44444 1H20.5556C21.9056 1 23 2.06705 23 3.38333V12.9167C23 14.2329 21.9056 15.3 20.5556 15.3H16.8889L12 20.0667L7.11111 15.3H3.44444C2.09441 15.3 1 14.2329 1 12.9167V3.38333Z" fill="#565656"/>
<path d="M5.88889 5.76667H18.1111M5.88889 10.5333H10.7778M12 20.0667L7.11111 15.3H3.44444C2.09441 15.3 1 14.2329 1 12.9167V3.38333C1 2.06705 2.09442 1 3.44444 1H20.5556C21.9056 1 23 2.06705 23 3.38333V12.9167C23 14.2329 21.9056 15.3 20.5556 15.3H16.8889L12 20.0667Z" stroke="#565656" stroke-width="2" stroke-linecap="round" stroke-linejoin="round"/>
<path d="M6 5H19" stroke="white" stroke-width="2" stroke-linecap="round"/>
<path d="M6 10H11" stroke="white" stroke-width="2" stroke-linecap="round"/>
</svg>
