<svg width="21" height="23" viewBox="0 0 21 23" fill="none" xmlns="http://www.w3.org/2000/svg">
<path d="M20.0535 5.53271L20.3629 5.7051C20.9721 6.0446 21.1808 6.79653 20.8291 7.38458L17.6999 12.4076C17.3482 12.9956 16.5692 13.1971 15.9599 12.8576L15.6506 12.6852C14.8128 12.2183 14.2488 11.4007 14.1257 10.4745C14.0369 9.80577 13.3006 9.413 12.6668 9.69615L11.8684 10.0528C11.5407 10.1992 11.1597 10.1826 10.8469 10.0083L7.25246 8.19247C6.79805 7.93924 6.58934 7.41353 6.75206 6.93203L7.10153 5.54336C7.21001 5.22236 7.07295 4.86579 6.75206 4.73138C4.19024 3.65837 0.846313 4.7093 0.846313 2.85653C0.846313 1.00376 7.30252 -1.38579 11.5905 1.00378L15.2512 2.85653C15.564 3.03081 15.768 3.34026 15.8005 3.6874L15.8797 4.53306C15.9426 5.20448 16.6631 5.62355 17.3075 5.36347C18.2001 5.00322 19.2157 5.06581 20.0535 5.53271Z" fill="#565656"/>
<path d="M0.180714 20.0306L6.7521 8.48114L10.0331 10.356L4.12734 22.2299C3.83945 22.7785 3.13344 22.9812 2.58175 22.6737L0.555328 21.5445C0.00363201 21.237 -0.167487 20.5455 0.180714 20.0306Z" fill="#565656"/>
</svg>
