<svg width="23" height="25" viewBox="0 0 23 25" fill="none" xmlns="http://www.w3.org/2000/svg">
<path d="M21.0535 6.53271L21.3629 6.7051C21.9721 7.0446 22.1808 7.79653 21.8291 8.38458L18.6999 13.4076C18.3482 13.9956 17.5692 14.1971 16.9599 13.8576L16.6506 13.6852C15.8128 13.2183 15.2488 12.4007 15.1257 11.4745C15.0369 10.8058 14.3006 10.413 13.6668 10.6961L12.8684 11.0528C12.5407 11.1992 12.1597 11.1826 11.8469 11.0083L8.25246 9.19247C7.79805 8.93924 7.58934 8.41353 7.75205 7.93203L8.10153 6.54336C8.21001 6.22236 8.07295 5.86579 7.75205 5.73138C5.19024 4.65837 1.84631 5.7093 1.84631 3.85653C1.84631 2.00376 8.30252 -0.385788 12.5905 2.00378L16.2512 3.85653C16.564 4.03081 16.768 4.34026 16.8005 4.6874L16.8797 5.53306C16.9426 6.20448 17.6631 6.62355 18.3075 6.36347C19.2001 6.00322 20.2157 6.06581 21.0535 6.53271Z" stroke="#323232" stroke-opacity="0.2" stroke-width="1.5"/>
<path d="M7.7521 9.48108L1.18071 21.0305C0.832513 21.5455 1.00363 22.237 1.55533 22.5444L3.58175 23.6737C4.13344 23.9811 4.83945 23.7784 5.12734 23.2299L11.0331 11.3559" stroke="#323232" stroke-opacity="0.2" stroke-width="1.5"/>
</svg>
